<mxfile host="app.diagrams.net" agent="Mozilla/5.0 (Windows NT 10.0; Win64; x64) AppleWebKit/537.36 (KHTML, like Gecko) Chrome/130.0.0.0 Safari/537.36" version="24.8.3">
  <diagram name="Strona-1" id="YkNLyQOiiEnR4pAY-5_M">
    <mxGraphModel dx="1434" dy="738" grid="1" gridSize="10" guides="1" tooltips="1" connect="1" arrows="1" fold="1" page="1" pageScale="1" pageWidth="827" pageHeight="1169" math="0" shadow="0">
      <root>
        <mxCell id="0" />
        <mxCell id="1" parent="0" />
        <mxCell id="XOLkhWDoxnP9P8J1GMW6-1" value="API1" style="whiteSpace=wrap;html=1;aspect=fixed;strokeColor=#82b366;fillColor=#d5e8d4;" vertex="1" parent="1">
          <mxGeometry x="40" y="205" width="40" height="40" as="geometry" />
        </mxCell>
        <mxCell id="XOLkhWDoxnP9P8J1GMW6-2" value="API2" style="whiteSpace=wrap;html=1;aspect=fixed;strokeColor=#82b366;fillColor=#d5e8d4;" vertex="1" parent="1">
          <mxGeometry x="40" y="265" width="40" height="40" as="geometry" />
        </mxCell>
        <mxCell id="XOLkhWDoxnP9P8J1GMW6-3" value="RSS3" style="whiteSpace=wrap;html=1;aspect=fixed;strokeColor=#82b366;fillColor=#d5e8d4;" vertex="1" parent="1">
          <mxGeometry x="40" y="335" width="40" height="40" as="geometry" />
        </mxCell>
        <mxCell id="XOLkhWDoxnP9P8J1GMW6-4" value="" style="endArrow=none;dashed=1;html=1;dashPattern=1 3;strokeWidth=2;rounded=0;strokeColor=#82b366;fontColor=#FEFAE0;fillColor=#d5e8d4;" edge="1" parent="1">
          <mxGeometry width="50" height="50" relative="1" as="geometry">
            <mxPoint x="59.920000000000016" y="335" as="sourcePoint" />
            <mxPoint x="60" y="305" as="targetPoint" />
            <Array as="points">
              <mxPoint x="59.73000000000002" y="325" />
            </Array>
          </mxGeometry>
        </mxCell>
        <mxCell id="XOLkhWDoxnP9P8J1GMW6-5" value="KAFKA" style="ellipse;shape=cloud;whiteSpace=wrap;html=1;strokeColor=#6c8ebf;fillColor=#dae8fc;" vertex="1" parent="1">
          <mxGeometry x="330" y="25" width="200" height="160" as="geometry" />
        </mxCell>
        <mxCell id="XOLkhWDoxnP9P8J1GMW6-6" value="" style="endArrow=classic;html=1;rounded=0;strokeColor=#82b366;fontColor=#FEFAE0;fillColor=#d5e8d4;exitX=1;exitY=0.5;exitDx=0;exitDy=0;entryX=0;entryY=0.25;entryDx=0;entryDy=0;" edge="1" parent="1" source="XOLkhWDoxnP9P8J1GMW6-1" target="XOLkhWDoxnP9P8J1GMW6-12">
          <mxGeometry width="50" height="50" relative="1" as="geometry">
            <mxPoint x="220" y="285" as="sourcePoint" />
            <mxPoint x="110" y="185" as="targetPoint" />
          </mxGeometry>
        </mxCell>
        <mxCell id="XOLkhWDoxnP9P8J1GMW6-7" value="&lt;font color=&quot;#000000&quot;&gt;REST&lt;/font&gt;" style="edgeLabel;html=1;align=center;verticalAlign=middle;resizable=0;points=[];strokeColor=#DDA15E;fontColor=#FEFAE0;fillColor=#BC6C25;" vertex="1" connectable="0" parent="XOLkhWDoxnP9P8J1GMW6-6">
          <mxGeometry x="0.0049" y="-2" relative="1" as="geometry">
            <mxPoint as="offset" />
          </mxGeometry>
        </mxCell>
        <mxCell id="XOLkhWDoxnP9P8J1GMW6-8" style="rounded=0;orthogonalLoop=1;jettySize=auto;html=1;exitX=1;exitY=0.5;exitDx=0;exitDy=0;strokeColor=#82b366;fontColor=#FEFAE0;fillColor=#d5e8d4;entryX=0;entryY=0.5;entryDx=0;entryDy=0;" edge="1" parent="1" source="XOLkhWDoxnP9P8J1GMW6-2" target="XOLkhWDoxnP9P8J1GMW6-12">
          <mxGeometry relative="1" as="geometry">
            <mxPoint x="85" y="265" as="targetPoint" />
          </mxGeometry>
        </mxCell>
        <mxCell id="XOLkhWDoxnP9P8J1GMW6-9" value="&lt;span style=&quot;color: rgb(0, 0, 0);&quot;&gt;REST&lt;/span&gt;" style="edgeLabel;html=1;align=center;verticalAlign=middle;resizable=0;points=[];strokeColor=#DDA15E;fontColor=#FEFAE0;fillColor=#BC6C25;" vertex="1" connectable="0" parent="XOLkhWDoxnP9P8J1GMW6-8">
          <mxGeometry x="0.01" relative="1" as="geometry">
            <mxPoint as="offset" />
          </mxGeometry>
        </mxCell>
        <mxCell id="XOLkhWDoxnP9P8J1GMW6-10" style="rounded=0;orthogonalLoop=1;jettySize=auto;html=1;exitX=1;exitY=0.5;exitDx=0;exitDy=0;strokeColor=#82b366;fontColor=#FEFAE0;fillColor=#d5e8d4;entryX=0;entryY=0.75;entryDx=0;entryDy=0;" edge="1" parent="1" source="XOLkhWDoxnP9P8J1GMW6-3" target="XOLkhWDoxnP9P8J1GMW6-12">
          <mxGeometry relative="1" as="geometry">
            <mxPoint x="20" y="443.4" as="sourcePoint" />
            <mxPoint x="110" y="345" as="targetPoint" />
          </mxGeometry>
        </mxCell>
        <mxCell id="XOLkhWDoxnP9P8J1GMW6-11" value="&lt;span style=&quot;color: rgb(0, 0, 0);&quot;&gt;REST&lt;/span&gt;" style="edgeLabel;html=1;align=center;verticalAlign=middle;resizable=0;points=[];strokeColor=#DDA15E;fontColor=#FEFAE0;fillColor=#BC6C25;" vertex="1" connectable="0" parent="XOLkhWDoxnP9P8J1GMW6-10">
          <mxGeometry x="0.1625" y="-1" relative="1" as="geometry">
            <mxPoint y="-2" as="offset" />
          </mxGeometry>
        </mxCell>
        <mxCell id="XOLkhWDoxnP9P8J1GMW6-12" value="Data Collection Service&lt;div&gt;(Python)&lt;/div&gt;" style="whiteSpace=wrap;html=1;aspect=fixed;strokeColor=#DDA15E;fontColor=#FEFAE0;fillColor=#BC6C25;" vertex="1" parent="1">
          <mxGeometry x="160" y="235" width="110" height="110" as="geometry" />
        </mxCell>
        <mxCell id="XOLkhWDoxnP9P8J1GMW6-13" value="" style="endArrow=classic;html=1;rounded=0;strokeColor=#DDA15E;fontColor=#FEFAE0;fillColor=#BC6C25;exitX=0.75;exitY=0;exitDx=0;exitDy=0;entryX=0.07;entryY=0.4;entryDx=0;entryDy=0;entryPerimeter=0;" edge="1" parent="1" source="XOLkhWDoxnP9P8J1GMW6-12" target="XOLkhWDoxnP9P8J1GMW6-5">
          <mxGeometry width="50" height="50" relative="1" as="geometry">
            <mxPoint x="365" y="255" as="sourcePoint" />
            <mxPoint x="415" y="205" as="targetPoint" />
          </mxGeometry>
        </mxCell>
        <mxCell id="XOLkhWDoxnP9P8J1GMW6-14" value="&lt;font color=&quot;#000000&quot;&gt;Data Collected&amp;nbsp;&lt;/font&gt;&lt;div&gt;&lt;font color=&quot;#000000&quot;&gt;Event&lt;/font&gt;&lt;/div&gt;" style="edgeLabel;html=1;align=center;verticalAlign=middle;resizable=0;points=[];strokeColor=#DDA15E;fontColor=#FEFAE0;fillColor=#BC6C25;" vertex="1" connectable="0" parent="XOLkhWDoxnP9P8J1GMW6-13">
          <mxGeometry x="0.0528" y="-2" relative="1" as="geometry">
            <mxPoint x="-11" as="offset" />
          </mxGeometry>
        </mxCell>
        <mxCell id="XOLkhWDoxnP9P8J1GMW6-15" value="Data Processer Service&lt;div&gt;(Sprig + ollama)&lt;/div&gt;" style="whiteSpace=wrap;html=1;aspect=fixed;strokeColor=#DDA15E;fontColor=#FEFAE0;fillColor=#BC6C25;" vertex="1" parent="1">
          <mxGeometry x="310" y="235" width="110" height="110" as="geometry" />
        </mxCell>
        <mxCell id="XOLkhWDoxnP9P8J1GMW6-16" value="" style="endArrow=classic;html=1;rounded=0;strokeColor=#DDA15E;fontColor=#FEFAE0;fillColor=#BC6C25;exitX=0.13;exitY=0.77;exitDx=0;exitDy=0;exitPerimeter=0;entryX=0.25;entryY=0;entryDx=0;entryDy=0;" edge="1" parent="1" source="XOLkhWDoxnP9P8J1GMW6-5" target="XOLkhWDoxnP9P8J1GMW6-15">
          <mxGeometry width="50" height="50" relative="1" as="geometry">
            <mxPoint x="420" y="305" as="sourcePoint" />
            <mxPoint x="470" y="255" as="targetPoint" />
          </mxGeometry>
        </mxCell>
        <mxCell id="XOLkhWDoxnP9P8J1GMW6-17" value="&lt;font color=&quot;#000000&quot;&gt;Data Collected&lt;/font&gt;&lt;div&gt;&lt;font color=&quot;#000000&quot;&gt;Event&lt;/font&gt;&lt;/div&gt;" style="edgeLabel;html=1;align=center;verticalAlign=middle;resizable=0;points=[];strokeColor=#DDA15E;fontColor=#FEFAE0;fillColor=#BC6C25;" vertex="1" connectable="0" parent="XOLkhWDoxnP9P8J1GMW6-16">
          <mxGeometry x="-0.1241" y="1" relative="1" as="geometry">
            <mxPoint as="offset" />
          </mxGeometry>
        </mxCell>
        <mxCell id="XOLkhWDoxnP9P8J1GMW6-18" value="ElasticSearch" style="shape=cylinder3;whiteSpace=wrap;html=1;boundedLbl=1;backgroundOutline=1;size=15;strokeColor=#DDA15E;fontColor=#FEFAE0;fillColor=#BC6C25;" vertex="1" parent="1">
          <mxGeometry x="550" y="395" width="80" height="80" as="geometry" />
        </mxCell>
        <mxCell id="XOLkhWDoxnP9P8J1GMW6-19" value="Data Storage&lt;div&gt;Service&lt;/div&gt;&lt;div&gt;(Spring)&lt;/div&gt;" style="whiteSpace=wrap;html=1;aspect=fixed;strokeColor=#DDA15E;fontColor=#FEFAE0;fillColor=#BC6C25;" vertex="1" parent="1">
          <mxGeometry x="470" y="235" width="110" height="110" as="geometry" />
        </mxCell>
        <mxCell id="XOLkhWDoxnP9P8J1GMW6-20" value="" style="endArrow=classic;html=1;rounded=0;strokeColor=#DDA15E;fontColor=#FEFAE0;fillColor=#BC6C25;exitX=0.75;exitY=0;exitDx=0;exitDy=0;entryX=0.55;entryY=0.95;entryDx=0;entryDy=0;entryPerimeter=0;" edge="1" parent="1" source="XOLkhWDoxnP9P8J1GMW6-15" target="XOLkhWDoxnP9P8J1GMW6-5">
          <mxGeometry width="50" height="50" relative="1" as="geometry">
            <mxPoint x="350" y="305" as="sourcePoint" />
            <mxPoint x="400" y="255" as="targetPoint" />
          </mxGeometry>
        </mxCell>
        <mxCell id="XOLkhWDoxnP9P8J1GMW6-21" value="" style="edgeLabel;html=1;align=center;verticalAlign=middle;resizable=0;points=[];strokeColor=#DDA15E;fontColor=#FEFAE0;fillColor=#BC6C25;" vertex="1" connectable="0" parent="XOLkhWDoxnP9P8J1GMW6-20">
          <mxGeometry x="-0.2518" y="1" relative="1" as="geometry">
            <mxPoint as="offset" />
          </mxGeometry>
        </mxCell>
        <mxCell id="XOLkhWDoxnP9P8J1GMW6-22" value="&lt;font color=&quot;#000000&quot;&gt;Data Processed&lt;/font&gt;&lt;div&gt;&lt;font color=&quot;#000000&quot;&gt;Event&lt;/font&gt;&lt;/div&gt;" style="edgeLabel;html=1;align=center;verticalAlign=middle;resizable=0;points=[];strokeColor=#DDA15E;fontColor=#FEFAE0;fillColor=#BC6C25;" vertex="1" connectable="0" parent="XOLkhWDoxnP9P8J1GMW6-20">
          <mxGeometry x="-0.0586" y="-1" relative="1" as="geometry">
            <mxPoint as="offset" />
          </mxGeometry>
        </mxCell>
        <mxCell id="XOLkhWDoxnP9P8J1GMW6-23" value="" style="endArrow=classic;html=1;rounded=0;strokeColor=#DDA15E;fontColor=#FEFAE0;fillColor=#BC6C25;exitX=0.8;exitY=0.8;exitDx=0;exitDy=0;entryX=0.5;entryY=0;entryDx=0;entryDy=0;exitPerimeter=0;" edge="1" parent="1" source="XOLkhWDoxnP9P8J1GMW6-5" target="XOLkhWDoxnP9P8J1GMW6-19">
          <mxGeometry width="50" height="50" relative="1" as="geometry">
            <mxPoint x="350" y="235" as="sourcePoint" />
            <mxPoint x="422" y="178" as="targetPoint" />
          </mxGeometry>
        </mxCell>
        <mxCell id="XOLkhWDoxnP9P8J1GMW6-24" value="" style="edgeLabel;html=1;align=center;verticalAlign=middle;resizable=0;points=[];strokeColor=#DDA15E;fontColor=#FEFAE0;fillColor=#BC6C25;" vertex="1" connectable="0" parent="XOLkhWDoxnP9P8J1GMW6-23">
          <mxGeometry x="-0.2518" y="1" relative="1" as="geometry">
            <mxPoint as="offset" />
          </mxGeometry>
        </mxCell>
        <mxCell id="XOLkhWDoxnP9P8J1GMW6-25" value="&lt;font color=&quot;#000000&quot;&gt;Data Processed&lt;/font&gt;&lt;div&gt;&lt;font color=&quot;#000000&quot;&gt;Event&lt;/font&gt;&lt;/div&gt;" style="edgeLabel;html=1;align=center;verticalAlign=middle;resizable=0;points=[];strokeColor=#DDA15E;fontColor=#FEFAE0;fillColor=#BC6C25;" vertex="1" connectable="0" parent="XOLkhWDoxnP9P8J1GMW6-23">
          <mxGeometry x="-0.0586" y="-1" relative="1" as="geometry">
            <mxPoint as="offset" />
          </mxGeometry>
        </mxCell>
        <mxCell id="XOLkhWDoxnP9P8J1GMW6-26" value="Redis" style="shape=cylinder3;whiteSpace=wrap;html=1;boundedLbl=1;backgroundOutline=1;size=15;strokeColor=#DDA15E;fontColor=#FEFAE0;fillColor=#BC6C25;" vertex="1" parent="1">
          <mxGeometry x="690" y="395" width="70" height="80" as="geometry" />
        </mxCell>
        <mxCell id="XOLkhWDoxnP9P8J1GMW6-27" value="MySQL&lt;div&gt;(backup?)&lt;/div&gt;" style="shape=cylinder3;whiteSpace=wrap;html=1;boundedLbl=1;backgroundOutline=1;size=15;strokeColor=#DDA15E;fontColor=#FEFAE0;fillColor=#BC6C25;" vertex="1" parent="1">
          <mxGeometry x="460" y="395" width="70" height="80" as="geometry" />
        </mxCell>
        <mxCell id="XOLkhWDoxnP9P8J1GMW6-28" value="Data Search&lt;br&gt;&lt;div&gt;Service&lt;/div&gt;&lt;div&gt;(Spring)&lt;/div&gt;" style="whiteSpace=wrap;html=1;aspect=fixed;strokeColor=#DDA15E;fontColor=#FEFAE0;fillColor=#BC6C25;" vertex="1" parent="1">
          <mxGeometry x="630" y="235" width="110" height="110" as="geometry" />
        </mxCell>
        <mxCell id="XOLkhWDoxnP9P8J1GMW6-29" value="Frontend&lt;div&gt;(Angular)&lt;/div&gt;" style="whiteSpace=wrap;html=1;aspect=fixed;strokeColor=#36393d;fillColor=#ffcccc;" vertex="1" parent="1">
          <mxGeometry x="645" y="85" width="80" height="80" as="geometry" />
        </mxCell>
        <mxCell id="XOLkhWDoxnP9P8J1GMW6-30" value="" style="endArrow=classic;startArrow=classic;html=1;rounded=0;strokeColor=#DDA15E;fontColor=#FEFAE0;fillColor=#BC6C25;entryX=0.5;entryY=1;entryDx=0;entryDy=0;exitX=0.5;exitY=0;exitDx=0;exitDy=0;" edge="1" parent="1" source="XOLkhWDoxnP9P8J1GMW6-28" target="XOLkhWDoxnP9P8J1GMW6-29">
          <mxGeometry width="50" height="50" relative="1" as="geometry">
            <mxPoint x="480" y="225" as="sourcePoint" />
            <mxPoint x="530" y="175" as="targetPoint" />
          </mxGeometry>
        </mxCell>
        <mxCell id="XOLkhWDoxnP9P8J1GMW6-31" value="&lt;font color=&quot;#000000&quot;&gt;REST&lt;/font&gt;" style="edgeLabel;html=1;align=center;verticalAlign=middle;resizable=0;points=[];strokeColor=#DDA15E;fontColor=#FEFAE0;fillColor=#BC6C25;" vertex="1" connectable="0" parent="XOLkhWDoxnP9P8J1GMW6-30">
          <mxGeometry x="0.0925" relative="1" as="geometry">
            <mxPoint as="offset" />
          </mxGeometry>
        </mxCell>
        <mxCell id="XOLkhWDoxnP9P8J1GMW6-32" value="" style="endArrow=classic;html=1;rounded=0;strokeColor=#DDA15E;fontColor=#FEFAE0;fillColor=#BC6C25;exitX=0.25;exitY=1;exitDx=0;exitDy=0;entryX=0.5;entryY=0;entryDx=0;entryDy=0;entryPerimeter=0;" edge="1" parent="1" source="XOLkhWDoxnP9P8J1GMW6-19" target="XOLkhWDoxnP9P8J1GMW6-27">
          <mxGeometry width="50" height="50" relative="1" as="geometry">
            <mxPoint x="480" y="295" as="sourcePoint" />
            <mxPoint x="530" y="245" as="targetPoint" />
          </mxGeometry>
        </mxCell>
        <mxCell id="XOLkhWDoxnP9P8J1GMW6-33" value="" style="endArrow=classic;html=1;rounded=0;strokeColor=#DDA15E;fontColor=#FEFAE0;fillColor=#BC6C25;exitX=0.75;exitY=1;exitDx=0;exitDy=0;entryX=0.145;entryY=0;entryDx=0;entryDy=4.35;entryPerimeter=0;" edge="1" parent="1" source="XOLkhWDoxnP9P8J1GMW6-19" target="XOLkhWDoxnP9P8J1GMW6-18">
          <mxGeometry width="50" height="50" relative="1" as="geometry">
            <mxPoint x="500" y="315" as="sourcePoint" />
            <mxPoint x="495" y="345" as="targetPoint" />
          </mxGeometry>
        </mxCell>
        <mxCell id="XOLkhWDoxnP9P8J1GMW6-34" value="" style="endArrow=classic;html=1;rounded=0;strokeColor=#DDA15E;fontColor=#FEFAE0;fillColor=#BC6C25;exitX=0.855;exitY=0;exitDx=0;exitDy=4.35;exitPerimeter=0;entryX=0.25;entryY=1;entryDx=0;entryDy=0;" edge="1" parent="1" source="XOLkhWDoxnP9P8J1GMW6-18" target="XOLkhWDoxnP9P8J1GMW6-28">
          <mxGeometry width="50" height="50" relative="1" as="geometry">
            <mxPoint x="480" y="295" as="sourcePoint" />
            <mxPoint x="530" y="245" as="targetPoint" />
          </mxGeometry>
        </mxCell>
        <mxCell id="XOLkhWDoxnP9P8J1GMW6-35" value="" style="endArrow=classic;startArrow=classic;html=1;rounded=0;strokeColor=#DDA15E;fontColor=#FEFAE0;fillColor=#BC6C25;entryX=0.75;entryY=1;entryDx=0;entryDy=0;exitX=0.5;exitY=0;exitDx=0;exitDy=0;exitPerimeter=0;" edge="1" parent="1" source="XOLkhWDoxnP9P8J1GMW6-26" target="XOLkhWDoxnP9P8J1GMW6-28">
          <mxGeometry width="50" height="50" relative="1" as="geometry">
            <mxPoint x="650" y="335" as="sourcePoint" />
            <mxPoint x="700" y="285" as="targetPoint" />
          </mxGeometry>
        </mxCell>
        <mxCell id="XOLkhWDoxnP9P8J1GMW6-36" value="Grafana" style="rhombus;whiteSpace=wrap;html=1;strokeColor=#DDA15E;fontColor=#FEFAE0;fillColor=#BC6C25;" vertex="1" parent="1">
          <mxGeometry x="455" y="505" width="80" height="80" as="geometry" />
        </mxCell>
        <mxCell id="XOLkhWDoxnP9P8J1GMW6-37" value="" style="endArrow=none;dashed=1;html=1;dashPattern=1 3;strokeWidth=2;rounded=0;strokeColor=#DDA15E;fontColor=#FEFAE0;fillColor=#BC6C25;entryX=0.5;entryY=1;entryDx=0;entryDy=0;entryPerimeter=0;exitX=0.5;exitY=0;exitDx=0;exitDy=0;" edge="1" parent="1" source="XOLkhWDoxnP9P8J1GMW6-36" target="XOLkhWDoxnP9P8J1GMW6-27">
          <mxGeometry width="50" height="50" relative="1" as="geometry">
            <mxPoint x="400" y="515" as="sourcePoint" />
            <mxPoint x="450" y="465" as="targetPoint" />
          </mxGeometry>
        </mxCell>
      </root>
    </mxGraphModel>
  </diagram>
</mxfile>
